<svg width="567" height="241" viewBox="0 0 567 241" fill="none" xmlns="http://www.w3.org/2000/svg">
<g clip-path="url(#clip0)">
<path fill-rule="evenodd" clip-rule="evenodd" d="M232.753 120.359C215.808 129.947 201.647 149.971 193.665 166.238C189.544 172.389 191.447 184.895 203.186 177.059C211.834 171.276 228.877 146.72 239.96 128.453C241.17 126.453 242.537 122.235 242.058 120.231C240.301 116.714 234.944 119.313 232.753 120.359ZM301.702 132.573C289.803 135.903 281.173 146.214 276.592 156.889C274.188 162.478 271.292 171.715 274.689 176.292C276.09 178.022 278.525 177.015 279.918 175.999C284.664 172.722 288.109 167.635 291.009 163.085C296.331 153.59 301.006 143.447 302.332 132.431L301.702 132.573ZM348.312 135.757C342.125 138.955 338.6 149.301 337.398 155.031C335.904 162.238 334.529 172.052 337.806 176.363C338.56 177.09 339.544 177.618 340.746 177.587C345.665 177.693 349.084 170.1 351.013 165.737C354.242 158.481 357.137 147.009 356.104 139.682C355.71 135.903 352.1 134.232 348.312 135.757ZM226.753 21.5198C238.709 33.7604 242.324 52.1068 236.585 67.8601C222.926 102.806 187.473 127.704 150.234 137.704C132.615 141.686 107.123 143.638 90.9534 135.371C76.4955 127.389 69.5732 110.545 72.3897 94.6152C76.8997 70.246 95.6461 52.5331 117.798 40.8471C136.26 31.9592 158.07 27.9773 180.143 30.4606C182.582 30.8464 184.821 32.0263 185.443 34.8468C185.691 36.8731 185.376 38.2439 184.432 39.5435C182.87 41.4502 181.065 41.9071 179.057 41.7913C154.186 41.6411 128.623 47.814 110.4 63.9573C99.7255 74.0859 91.1179 90.1092 99.362 107.126C104.639 117.845 123.554 121.126 134.668 120.111C199.306 114.133 219.262 74.6585 223.045 61.1145C230.824 33.2771 203.55 9.59021 151.152 16.872C83.3569 26.2918 41.1857 72.3213 32.5597 119.486C23.499 169.036 71.2323 190.053 120.959 179.595C141.227 175.347 162.58 165.706 183.424 145.877C200.605 127.846 224.123 101.6 250.759 105.654C254.04 106.399 258.032 108.062 258.972 111.698C260.546 118.133 257.238 123.876 255.145 129.588C233.964 165.714 236.133 180.367 239.915 182.239C247.695 184.704 252.71 173.613 256.515 167.4C261.576 144.023 280.015 121.868 303.804 115.144C304.527 112.332 304.602 109.485 304.527 106.571C304.159 94.0566 298.283 85.3861 294.544 75.1641C293.661 72.4716 294.575 69.1637 296.672 67.1454C298.336 65.4253 301.928 63.5269 304.838 64.3167C307.68 64.8 309.632 67.0884 311.149 69.0927C316.554 77.408 322.532 82.2062 333.85 82.2021C342.294 82.4905 350.871 81.9179 357.643 77.4608C361.905 72.5873 366.775 67.3139 373.139 65.5939C376.225 64.9767 378.686 65.6204 380.802 67.5048C382.78 69.5008 383.285 72.5122 382.203 75.1946C380.252 80.2061 373.281 85.0449 368.344 90.282C360.246 98.9037 354.317 109.41 350.175 120.595C352.721 119.805 356.272 118.958 359.546 119.587C368.965 121.366 371.955 130.404 372.491 139.008C372.659 141.709 372.58 144.6 372.176 147.39C377.577 146.548 381.015 144.529 385.064 142.454C391.982 138.573 397.725 132.861 403.268 127.438C405.725 125.176 409.437 124.359 412.228 125.393C414.422 126.045 416.232 127.992 416.617 130.4C417.598 136.914 411.774 138.955 403.433 151.612C398.777 158.695 393.481 166.047 392.589 174.722C392.47 176.288 392.856 177.764 393.885 178.913C395.796 180.505 398.949 179.667 401.002 178.483C405.287 176.101 408.714 172.265 411.239 168.317C414.924 154.885 420.21 142.121 430.974 132.786C433.701 130.737 437.005 128.794 440.574 129.584C442.495 129.921 444.061 131.296 444.451 132.835C446.593 139.247 442.181 147.612 439.12 152.986C435.199 159.905 428.858 166.553 423.438 172.651C423.292 175.853 424.015 177.91 426.498 178.535C430.281 179.033 433.27 176.217 436.207 173.857C444.406 166.216 452.159 157.271 457.01 147.031C456.212 137.806 459.37 127.198 467.61 122.333C470.408 120.932 473.659 121.074 475.899 122.599C478.187 124.351 478.266 127.685 477.828 130.524C477.18 133.85 475.304 136.476 473.641 139.367C478.214 139.66 482.236 137.509 486.462 136.453C488.653 135.996 489.956 136.626 491.177 137.585C493.376 139.656 493.589 142.356 492.484 145.035C490.165 149.953 487.034 152.601 483.712 157.226C479.135 163.613 474.958 172.198 474.812 178.625C474.839 180.142 475.472 181.183 476.506 181.618C478.963 182.487 481.087 180.655 483.128 179.419C497.301 168.699 508.148 153.399 519.906 140.675C522.988 137.802 526.513 134.843 530.85 136.214C532.363 136.742 533.551 137.952 533.955 139.585C534.611 142.671 532.806 146.529 530.869 149.11C524.996 158.069 517.134 168.261 516.827 178.846C516.876 180.7 517.452 181.33 518.295 181.596C521.715 182.58 525.809 179.09 528.877 176.247C539.188 166.77 546.08 154.721 553.867 143.615C555.388 141.221 557.717 139.247 560.542 138.933C562.515 138.813 564.152 139.345 565.429 140.675C568.835 145.469 565.988 152.627 563.598 157.226C553.114 177.01 542.035 197.02 530.992 217.208C525.427 226.929 522.367 232.397 522.03 239.963C521.711 240.828 520.921 241.262 519.741 240.832C513.475 238.513 510.987 234.641 510.938 229.985C510.894 225.869 514.557 220.033 515.936 217.31C521.351 206.631 528.7 195.349 533.813 184.674C533.086 185.259 531.764 186.603 530.607 187.547C523.79 193.113 517.325 200.245 508.171 198.99C505.186 198.462 502.534 195.424 501.714 192.394C500.241 187.259 501.186 179.91 502.729 174.655L502.166 175.209C494.365 183.516 485.952 192.776 475.423 197.956C472.191 199.428 466.598 200.484 463.347 197.544C457.179 191.184 458.673 179.88 462.048 171.595C464.745 164.792 468.475 158.429 472.532 152.436C469.539 153.35 466.865 153.781 463.853 153.803L462.842 155.275C453.276 169.595 444.229 185.716 430.113 195.619C425.288 199.012 418.902 199.286 414.902 196.732C411.527 194.555 410.156 190.607 409.19 186.962C402.103 192.337 389.787 201.761 381.236 197.574C376.101 194.825 373.888 189.015 374.127 183.135C374.322 174.647 378.057 165.879 381.454 158.268C380.15 158.885 379.45 159.156 378.101 159.763C374.828 161.231 371.476 162.264 368.145 163.519C365.696 170.429 360.508 180.142 357.643 184.022C353.421 190.51 345.017 198.679 337.402 198.923C331.375 199.335 326.076 196.537 323.206 191.521C316.381 180.46 319.561 165.347 322.284 152.331C327.184 132.813 334.986 114.665 344.196 97.6083C341.226 97.9858 338.893 98.1544 335.926 98.3312C330.626 98.6683 326.573 99.1657 320.839 98.0346C321.255 129.224 313.055 161.377 292.593 185.982C286.792 192.945 277.461 200.271 267.269 198.675C260.808 197.716 256.063 191.139 255.149 185.188C250.59 193.016 241.885 202.436 229.308 195.525C221.857 191.405 221.742 187.716 221.214 179.524C221.214 179.524 205.475 203.384 184.795 197.784C175.469 195.18 167.472 185.902 172.413 171.13C146.717 190.94 117.82 203.833 92.1514 204.275C56.7075 204.901 25.4506 190.439 10.2658 166.269C-10.5863 133.079 2.62072 86.5212 29.3229 57.039C56.0069 27.5427 86.2972 15.2982 105.961 8.86722C160.532 -8.96938 207.351 2.60091 226.753 21.5198Z" fill="#FFFAEF"/>
</g>
<defs>
<clipPath id="clip0">
<rect width="567" height="241" fill="white"/>
</clipPath>
</defs>
</svg>
