<svg width="151" height="64" viewBox="0 0 151 64" fill="none" xmlns="http://www.w3.org/2000/svg">
<path fill-rule="evenodd" clip-rule="evenodd" d="M61.9856 31.9625C57.4728 34.5088 53.7015 39.8264 51.5757 44.1462C50.4784 45.7796 50.9851 49.1008 54.1114 47.0199C56.4145 45.4841 60.9532 38.963 63.9048 34.112C64.2271 33.5808 64.591 32.4608 64.4634 31.9286C63.9957 30.9946 62.5691 31.6848 61.9856 31.9625ZM80.3476 35.2061C77.1787 36.0905 74.8804 38.8287 73.6604 41.6636C73.0201 43.1476 72.2489 45.6005 73.1537 46.816C73.5268 47.2755 74.1753 47.008 74.5462 46.7384C75.81 45.868 76.7277 44.5172 77.4999 43.3088C78.9173 40.7873 80.1622 38.0938 80.5153 35.1683L80.3476 35.2061ZM92.7606 36.0516C91.1129 36.9009 90.1741 39.6484 89.8539 41.1702C89.4559 43.0839 89.0898 45.6901 89.9626 46.8349C90.1633 47.028 90.4255 47.1681 90.7457 47.1601C92.0554 47.1881 92.9661 45.1719 93.4798 44.013C94.3396 42.0863 95.1108 39.0396 94.8355 37.094C94.7306 36.0905 93.7691 35.6466 92.7606 36.0516ZM60.3876 5.7148C63.5717 8.96542 64.5343 13.8375 63.006 18.0209C59.3683 27.3013 49.9269 33.913 40.0096 36.5688C35.3173 37.6262 28.5284 38.1444 24.2222 35.9492C20.3718 33.8294 18.5283 29.3564 19.2784 25.126C20.4795 18.6545 25.4719 13.9507 31.3712 10.8474C36.288 8.48709 42.0964 7.42966 47.9746 8.08912C48.6241 8.19157 49.2206 8.50491 49.3861 9.25392C49.4521 9.79203 49.3682 10.1561 49.1168 10.5012C48.7009 11.0075 48.2202 11.1289 47.6853 11.0981C41.0619 11.0582 34.2541 12.6975 29.4012 16.9845C26.5583 19.6743 24.266 23.9294 26.4615 28.4483C27.867 31.295 32.9043 32.1664 35.864 31.8968C53.0779 30.3092 58.3927 19.8263 59.4001 16.2296C61.4718 8.83707 54.2082 2.54678 40.254 4.48053C22.1991 6.98205 10.9683 19.2056 8.67112 31.7307C6.25812 44.8893 18.9702 50.4705 32.2132 47.6934C37.6107 46.5653 43.2975 44.0049 48.8486 38.7392C53.424 33.9507 59.6873 26.981 66.7806 28.0574C67.6546 28.2553 68.7177 28.6969 68.9681 29.6627C69.3872 31.3715 68.5063 32.8965 67.9487 34.4134C62.3079 44.0071 62.8855 47.8983 63.8929 48.3955C65.9646 49.0501 67.3003 46.1048 68.3137 44.4546C69.6613 38.2469 74.5721 32.3632 80.9073 30.5778C81.0998 29.8309 81.1199 29.0749 81.0998 28.3011C81.002 24.9777 79.437 22.6751 78.4414 19.9606C78.2062 19.2456 78.4495 18.3671 79.0081 17.8311C79.451 17.3743 80.4077 16.8702 81.1826 17.0799C81.9397 17.2083 82.4594 17.816 82.8633 18.3483C84.3029 20.5565 85.8949 21.8307 88.9091 21.8296C91.1577 21.9062 93.442 21.7541 95.2454 20.5705C96.3805 19.2763 97.6773 17.8759 99.3721 17.4191C100.194 17.2552 100.849 17.4262 101.413 17.9266C101.94 18.4566 102.074 19.2563 101.786 19.9687C101.266 21.2995 99.4099 22.5845 98.0953 23.9753C95.9387 26.2649 94.3597 29.0549 93.2565 32.0251C93.9346 31.8153 94.8804 31.5905 95.7522 31.7576C98.2608 32.23 99.0568 34.6302 99.1996 36.915C99.2445 37.6322 99.2234 38.4 99.1158 39.141C100.554 38.9172 101.47 38.3812 102.548 37.8301C104.39 36.7996 105.92 35.2827 107.396 33.8424C108.05 33.2416 109.039 33.0249 109.782 33.2993C110.367 33.4724 110.848 33.9896 110.951 34.6291C111.212 36.359 109.661 36.9009 107.44 40.2621C106.2 42.1429 104.79 44.0956 104.552 46.3992C104.52 46.815 104.623 47.207 104.897 47.5122C105.406 47.935 106.246 47.7123 106.793 47.3979C107.934 46.7653 108.846 45.7467 109.519 44.6984C110.5 41.1313 111.908 37.7416 114.774 35.2627C115.501 34.7186 116.381 34.2026 117.331 34.4123C117.843 34.5019 118.26 34.8669 118.364 35.2756C118.934 36.9786 117.759 39.1997 116.944 40.6271C115.9 42.4643 114.211 44.2298 112.768 45.8492C112.729 46.6996 112.921 47.2458 113.583 47.4119C114.59 47.544 115.386 46.7961 116.168 46.1695C118.352 44.1403 120.416 41.7649 121.708 39.0455C121.496 36.5957 122.337 33.7787 124.531 32.4867C125.276 32.1146 126.142 32.1523 126.739 32.5573C127.348 33.0227 127.369 33.9082 127.252 34.662C127.08 35.5453 126.58 36.2425 126.137 37.0104C127.355 37.0881 128.426 36.5169 129.552 36.2366C130.135 36.1152 130.482 36.2824 130.807 36.537C131.393 37.087 131.45 37.8042 131.156 38.5154C130.538 39.8215 129.704 40.5247 128.819 41.7531C127.601 43.449 126.488 45.7289 126.449 47.4356C126.456 47.8385 126.625 48.1151 126.9 48.2305C127.555 48.4613 128.12 47.9749 128.664 47.6465C132.438 44.7998 135.327 40.7366 138.458 37.3577C139.279 36.5947 140.218 35.809 141.373 36.1729C141.776 36.3132 142.092 36.6346 142.2 37.0681C142.375 37.8878 141.894 38.9123 141.378 39.5977C139.814 41.9769 137.72 44.6833 137.638 47.4944C137.651 47.9867 137.805 48.1539 138.029 48.2245C138.94 48.4861 140.03 47.5591 140.847 46.8042C143.594 44.2875 145.429 41.0876 147.503 38.1385C147.908 37.5027 148.528 36.9786 149.28 36.895C149.806 36.8632 150.242 37.0045 150.582 37.3577C151.489 38.6308 150.731 40.5317 150.094 41.7531C147.302 47.0069 144.352 52.3206 141.411 57.6818C139.929 60.2632 139.114 61.7153 139.024 63.7246C138.939 63.9543 138.729 64.0697 138.414 63.9553C136.746 63.3396 136.083 62.3112 136.07 61.0747C136.058 59.9817 137.034 58.4319 137.401 57.7087C138.843 54.8729 140.8 51.8769 142.162 49.042C141.968 49.1973 141.616 49.5543 141.308 49.8051C139.493 51.2832 137.771 53.177 135.333 52.8437C134.538 52.7035 133.832 51.8968 133.613 51.0922C133.221 49.7285 133.473 47.777 133.884 46.3814L133.734 46.5286C131.656 48.7347 129.416 51.1936 126.612 52.5692C125.751 52.9602 124.262 53.2406 123.396 52.4598C121.753 50.7709 122.151 47.7689 123.05 45.5687C123.768 43.7623 124.762 42.0723 125.842 40.481C125.045 40.7236 124.333 40.838 123.531 40.8439L123.261 41.2349C120.714 45.0376 118.305 49.3187 114.545 51.9486C113.26 52.8497 111.56 52.9224 110.494 52.2441C109.595 51.666 109.23 50.6177 108.973 49.6498C107.086 51.0772 103.806 53.5798 101.529 52.4678C100.161 51.7377 99.5716 50.195 99.6355 48.6333C99.6874 46.3793 100.682 44.0508 101.587 42.0297C101.239 42.1937 101.053 42.2654 100.694 42.4266C99.822 42.8164 98.9292 43.0909 98.0423 43.4242C97.3902 45.2593 96.0085 47.8385 95.2454 48.869C94.1211 50.5919 91.8829 52.7612 89.855 52.8259C88.25 52.9354 86.8386 52.1923 86.0745 50.8604C84.2569 47.9231 85.1037 43.9095 85.8289 40.4529C87.1338 35.2697 89.2115 30.4505 91.6644 25.9209C90.8733 26.0211 90.2519 26.0659 89.4619 26.1128C88.0505 26.2024 86.971 26.3344 85.4439 26.0341C85.5548 34.3169 83.3711 42.8553 77.9217 49.3893C76.3767 51.2384 73.8918 53.184 71.1777 52.7601C69.4569 52.5056 68.1931 50.759 67.9498 49.1785C66.7357 51.2573 64.4174 53.7588 61.0679 51.9238C59.0838 50.8296 59.0529 49.8498 58.9124 47.6745C58.9124 47.6745 54.7208 54.0106 49.2136 52.5234C46.7298 51.8321 44.6002 49.3682 45.9159 45.4453C39.0729 50.7061 31.3771 54.1298 24.5412 54.2474C15.102 54.4134 6.77786 50.5729 2.73394 44.1543C-2.81928 35.3404 0.697935 22.9766 7.80911 15.1473C14.9154 7.31424 22.9822 4.0626 28.2191 2.35478C42.7519 -2.38191 55.2205 0.690698 60.3876 5.7148Z" fill="#FDFD96"/>
</svg>

