<svg width="120" height="120" viewBox="0 0 120 120" fill="none" xmlns="http://www.w3.org/2000/svg">
<path fill-rule="evenodd" clip-rule="evenodd" d="M73.75 1.47526e-06C77.2018 1.47526e-06 80 2.79822 80 6.25V40H113.75C117.202 40 120 42.7982 120 46.25V73.75C120 77.2018 117.202 80 113.75 80H80V113.75C80 117.202 77.2018 120 73.75 120H46.25C42.7982 120 40 117.202 40 113.75L40 80H6.25C2.79822 80 0 77.2018 0 73.75L2.11099e-06 46.25C2.26187e-06 42.7982 2.79822 40 6.25 40H40V6.25C40 2.79822 42.7982 -1.50882e-07 46.25 0L73.75 1.47526e-06Z" fill="#FFFCB8"/>
<path d="M59.2617 6.94448L48.5665 17.5479C47.3651 18.739 48.2014 20.7999 49.8861 20.7999H70.914C72.583 20.7999 73.4263 18.7716 72.2565 17.571L61.9238 6.96762C61.195 6.2198 60.0031 6.20943 59.2617 6.94448Z" fill="#14BE73"/>
<path d="M6.14458 60.7383L16.748 71.4335C17.9391 72.6349 20 71.7986 20 70.1139L20 49.086C20 47.417 17.9717 46.5737 16.7711 47.7435L6.16773 58.0762C5.4199 58.805 5.40954 59.9969 6.14458 60.7383Z" fill="#14BE73"/>
<path d="M113.855 59.2617L103.252 48.5665C102.061 47.3651 100 48.2014 100 49.8861L100 70.914C100 72.583 102.028 73.4263 103.229 72.2565L113.832 61.9238C114.58 61.195 114.59 60.0031 113.855 59.2617Z" fill="#14BE73"/>
<path d="M60.7383 114.655L71.4335 104.052C72.6349 102.861 71.7986 100.8 70.1139 100.8L49.086 100.8C47.417 100.8 46.5737 102.828 47.7435 104.029L58.0762 114.632C58.805 115.38 59.9969 115.39 60.7383 114.655Z" fill="#14BE73"/>
</svg>
