<svg width="100" height="100" viewBox="0 0 100 100" fill="none" xmlns="http://www.w3.org/2000/svg">
<path fill-rule="evenodd" clip-rule="evenodd" d="M61.4583 1.22938e-06C64.3348 1.22938e-06 66.6667 2.33185 66.6667 5.20833V33.3333H94.7917C97.6681 33.3333 100 35.6652 100 38.5417V61.4583C100 64.3348 97.6681 66.6667 94.7917 66.6667H66.6667V94.7917C66.6667 97.6681 64.3348 100 61.4583 100H38.5417C35.6652 100 33.3333 97.6681 33.3333 94.7917L33.3333 66.6667H5.20833C2.33185 66.6667 0 64.3348 0 61.4583L1.75916e-06 38.5417C1.88489e-06 35.6652 2.33185 33.3333 5.20834 33.3333H33.3333V5.20833C33.3333 2.33185 35.6652 -1.25735e-07 38.5417 0L61.4583 1.22938e-06Z" fill="#C4C4C4"/>
</svg>
